<?xml version="1.0" ?><!DOCTYPE svg  PUBLIC '-//W3C//DTD SVG 1.1//EN'  'http://www.w3.org/Graphics/SVG/1.1/DTD/svg11.dtd'><svg enable-background="new 0 0 1000 1000" height="1000px" id="Layer_1" version="1.1" viewBox="0 0 1000 1000" width="1000px" xml:space="preserve" xmlns="http://www.w3.org/2000/svg" xmlns:xlink="http://www.w3.org/1999/xlink"><g><g><defs><circle cx="500" cy="500" id="SVGID_1_" r="500"/></defs><clipPath id="SVGID_2_"><use overflow="visible" xlink:href="#SVGID_1_"/></clipPath><rect clip-path="url(#SVGID_2_)" fill="#DE2910" height="1457.153" width="1813.94" x="-210.011" y="-138.251"/><polygon clip-path="url(#SVGID_2_)" fill="#FFDE00" points="359.733,391.717 309.197,236.19 258.663,391.717 95.135,391.717      227.431,487.836 176.896,643.366 309.197,547.243 441.499,643.366 390.963,487.836 523.26,391.717    "/><polygon clip-path="url(#SVGID_2_)" fill="#FFDE00" points="673.117,262.561 701.165,309.303 705.948,255.004 759.066,242.778      708.906,221.446 713.688,167.147 677.901,208.263 627.74,186.93 655.785,233.672 619.995,274.788    "/><polygon clip-path="url(#SVGID_2_)" fill="#FFDE00" points="813.819,406.199 821.53,460.157 847.009,411.973 900.708,421.318      862.756,382.194 888.24,334.002 839.295,358.011 801.343,318.888 809.052,372.847 760.113,396.854    "/><polygon clip-path="url(#SVGID_2_)" fill="#FFDE00" points="861.941,619.201 904.865,585.601 850.391,587.555 831.697,536.349      816.723,588.763 762.247,590.716 807.466,621.154 792.492,673.567 835.416,639.967 880.635,670.402    "/><polygon clip-path="url(#SVGID_2_)" fill="#FFDE00" points="708.275,745.627 710.803,691.181 676.754,733.742 625.749,714.509      655.707,760.049 621.651,802.615 674.223,788.193 704.181,833.732 706.711,779.28 759.279,764.859    "/></g></g></svg>
